<?xml version="1.0" encoding="UTF-8" standalone="no"?>
<svg xmlns:xlink="http://www.w3.org/1999/xlink" height="563.0px" width="1003.0px" xmlns="http://www.w3.org/2000/svg">
  <g transform="matrix(1.0, 0.0, 0.0, 1.0, 1.5, 1.5)">
    <use height="563.0" transform="matrix(1.0, 0.0, 0.0, 1.0, -1.5, -1.5)" width="1003.0" xlink:href="#shape0"/>
    <use height="29.3" id="fps" transform="matrix(1.0, 0.0, 0.0, 1.0, 965.0, 4.1)" width="30.0" xlink:href="#sprite0"/>
    <use height="73.7" id="panel1" transform="matrix(1.0, 0.0, 0.0, 1.0, 59.15, 486.15)" width="215.85" xlink:href="#sprite1"/>
    <use height="73.7" id="panel2" transform="matrix(1.0, 0.0, 0.0, 1.0, 279.15, 486.15)" width="215.85" xlink:href="#sprite1"/>
    <use height="73.7" id="panel3" transform="matrix(1.0, 0.0, 0.0, 1.0, 499.15, 486.15)" width="215.85" xlink:href="#sprite1"/>
    <use height="73.7" id="panel4" transform="matrix(1.0, 0.0, 0.0, 1.0, 719.15, 486.15)" width="215.85" xlink:href="#sprite1"/>
  </g>
  <defs>
    <g id="shape0" transform="matrix(1.0, 0.0, 0.0, 1.0, 1.5, 1.5)">
      <path d="M1001.0 561.0 L-1.0 561.0 -1.0 -1.0 1001.0 -1.0 1001.0 561.0 Z" fill="none" stroke="#000000" stroke-linecap="round" stroke-linejoin="round" stroke-width="1.0"/>
    </g>
    <g id="sprite0" transform="matrix(1.0, 0.0, 0.0, 1.0, 0.0, 0.0)">
      <use height="29.35" transform="matrix(1.0, 0.0, 0.0, 0.998, 0.0, 0.0039)" width="30.0" xlink:href="#text0"/>
    </g>
    <g id="sprite1" transform="matrix(1.0, 0.0, 0.0, 1.0, 10.85, 3.85)">
      <use height="55.0" transform="matrix(1.0, 0.0, 0.0, 1.0, 0.0, 0.0)" width="205.0" xlink:href="#sprite2"/>
      <use height="39.55" transform="matrix(1.0, 0.0, 0.0, 1.0, 5.0, 6.85)" width="31.55" xlink:href="#shape2"/>
      <use height="23.2" transform="matrix(1.0, 0.0, 0.0, 1.0, 42.95, 22.35)" width="152.9" xlink:href="#sprite3"/>
      <use height="29.35" id="livesdisplay" transform="matrix(1.0, 0.0, 0.0, 1.0, 69.75, -3.85)" width="104.0" xlink:href="#text1"/>
      <use height="23.2" id="healthbar" transform="matrix(1.0, 0.0, 0.0, 1.0, 41.95, 21.35)" width="152.9" xlink:href="#sprite4"/>
      <use height="23.75" id="nametag" transform="matrix(1.0, 0.0, 0.0, 1.0, 41.35, -2.05)" width="104.45" xlink:href="#text2"/>
      <use height="19.95" id="icon" transform="matrix(1.0, 0.0, 0.0, 1.0, 175.4, 0.55)" width="19.95" xlink:href="#sprite8"/>
      <clipPath id="clipPath0" transform="matrix(1.0, 0.0, 0.0, 1.0, 0.0, 0.0)">
        <path d="M3.0 4.6 L34.55 4.6 34.55 44.15 3.0 44.15 3.0 4.6" fill="#0099ff" fill-rule="evenodd" stroke="none"/>
      </clipPath>
      <g clip-path="url(#clipPath0)">
        <use height="39.55" transform="matrix(1.0, 0.0, 0.0, 1.0, 3.0, 4.55)" width="31.55" xlink:href="#shape9"/>
        <use height="43.05" id="player" transform="matrix(1.6653, 0.0, 0.0, 1.6653, -10.843, -1.8337)" width="42.15" xlink:href="#sprite9"/>
      </g>
    </g>
    <g id="sprite2" transform="matrix(1.0, 0.0, 0.0, 1.0, 0.0, 0.0)">
      <use height="55.0" transform="matrix(1.0, 0.0, 0.0, 1.0, 0.0, 0.0)" width="205.0" xlink:href="#shape1"/>
    </g>
    <g id="shape1" transform="matrix(1.0, 0.0, 0.0, 1.0, 0.0, 0.0)">
      <path d="M200.0 5.0 L205.0 5.0 205.0 55.0 5.0 55.0 5.0 50.0 200.0 50.0 200.0 5.0" fill="#000000" fill-opacity="0.29803923" fill-rule="evenodd" stroke="none"/>
      <path d="M5.0 50.0 L0.0 50.0 0.0 0.0 200.0 0.0 200.0 5.0 200.0 50.0 5.0 50.0" fill="#ffffff" fill-rule="evenodd" stroke="none"/>
    </g>
    <g id="shape2" transform="matrix(1.0, 0.0, 0.0, 1.0, -5.0, -6.85)">
      <path d="M36.55 46.4 L5.0 46.4 5.0 6.85 36.55 6.85 36.55 46.4" fill="#000000" fill-opacity="0.6" fill-rule="evenodd" stroke="none"/>
    </g>
    <g id="sprite3" transform="matrix(1.0, 0.0, 0.0, 1.0, 0.0, 0.0)">
      <use height="23.2" transform="matrix(1.0, 0.0, 0.0, 1.0, 0.0, 0.0)" width="152.9" xlink:href="#shape3"/>
    </g>
    <g id="shape3" transform="matrix(1.0, 0.0, 0.0, 1.0, 0.0, 0.0)">
      <path d="M152.9 19.45 L149.15 23.2 140.15 23.2 152.9 10.45 152.9 19.45 M142.55 2.8 L151.55 2.8 131.15 23.2 122.15 23.2 142.55 2.8 M2.8 23.2 L2.8 16.55 16.55 2.8 25.55 2.8 5.15 23.2 2.8 23.2 M2.8 7.55 L2.8 2.8 7.55 2.8 2.8 7.55 M34.55 2.8 L43.55 2.8 23.15 23.2 14.15 23.2 34.55 2.8 M52.55 2.8 L61.55 2.8 41.15 23.2 32.15 23.2 52.55 2.8 M70.55 2.8 L79.55 2.8 59.15 23.2 50.15 23.2 70.55 2.8 M88.55 2.8 L97.55 2.8 77.15 23.2 68.15 23.2 88.55 2.8 M106.55 2.8 L115.55 2.8 95.15 23.2 86.15 23.2 106.55 2.8 M124.55 2.8 L133.55 2.8 113.15 23.2 104.15 23.2 124.55 2.8" fill="#999999" fill-rule="evenodd" stroke="none"/>
      <path d="M149.15 23.2 L152.9 19.45 152.9 23.2 149.15 23.2 M152.9 10.45 L140.15 23.2 131.15 23.2 151.55 2.8 152.9 2.8 152.9 10.45 M2.8 16.55 L2.8 7.55 7.55 2.8 16.55 2.8 2.8 16.55 M25.55 2.8 L34.55 2.8 14.15 23.2 5.15 23.2 25.55 2.8 M43.55 2.8 L52.55 2.8 32.15 23.2 23.15 23.2 43.55 2.8 M61.55 2.8 L70.55 2.8 50.15 23.2 41.15 23.2 61.55 2.8 M79.55 2.8 L88.55 2.8 68.15 23.2 59.15 23.2 79.55 2.8 M97.55 2.8 L106.55 2.8 86.15 23.2 77.15 23.2 97.55 2.8 M115.55 2.8 L124.55 2.8 104.15 23.2 95.15 23.2 115.55 2.8 M133.55 2.8 L142.55 2.8 122.15 23.2 113.15 23.2 133.55 2.8" fill="#b0b0b0" fill-rule="evenodd" stroke="none"/>
      <path d="M151.55 2.8 L142.55 2.8 133.55 2.8 124.55 2.8 115.55 2.8 106.55 2.8 97.55 2.8 88.55 2.8 79.55 2.8 70.55 2.8 61.55 2.8 52.55 2.8 43.55 2.8 34.55 2.8 25.55 2.8 16.55 2.8 7.55 2.8 2.8 2.8 2.8 7.55 2.8 16.55 2.8 23.2 0.0 23.2 0.0 0.0 152.9 0.0 152.9 2.8 151.55 2.8" fill="#666666" fill-rule="evenodd" stroke="none"/>
    </g>
    <g id="sprite4" transform="matrix(1.0, 0.0, 0.0, 1.0, 0.0, 0.0)">
      <use height="23.2" transform="matrix(1.0, 0.0, 0.0, 1.0, 0.0, 0.0)" width="152.9" xlink:href="#sprite5"/>
      <use height="23.2" id="asdf" transform="matrix(1.0, 0.0, 0.0, 1.0, 0.0, 0.0)" width="152.9" xlink:href="#sprite6"/>
      <use height="8.35" transform="matrix(1.0, 0.0, 0.0, 1.0, 0.0, 0.0)" width="152.9" xlink:href="#shape6"/>
    </g>
    <g id="sprite5" transform="matrix(1.0, 0.0, 0.0, 1.0, 0.0, 0.0)">
      <use height="23.2" transform="matrix(1.0, 0.0, 0.0, 1.0, 0.0, 0.0)" width="152.9" xlink:href="#shape4"/>
    </g>
    <g id="shape4" transform="matrix(1.0, 0.0, 0.0, 1.0, 0.0, 0.0)">
      <path d="M152.9 23.2 L0.0 23.2 0.0 0.0 152.9 0.0 152.9 23.2" fill="#00cc00" fill-rule="evenodd" stroke="none"/>
    </g>
    <g id="sprite6" transform="matrix(1.0, 0.0, 0.0, 1.0, 0.0, 0.0)">
      <use height="23.2" transform="matrix(1.0, 0.0, 0.0, 1.0, 0.0, 0.0)" width="152.9" xlink:href="#sprite7"/>
    </g>
    <g id="sprite7" transform="matrix(1.0, 0.0, 0.0, 1.0, 0.0, 0.0)">
      <use height="20.0" transform="matrix(0.7645, 0.0, 0.0, 1.16, 0.0, 0.0)" width="200.0" xlink:href="#shape5"/>
    </g>
    <g id="shape5" transform="matrix(1.0, 0.0, 0.0, 1.0, 0.0, 0.0)">
      <path d="M200.0 20.0 L0.0 20.0 0.0 0.0 200.0 0.0 200.0 20.0" fill="#ffffff" fill-opacity="0.0" fill-rule="evenodd" stroke="none"/>
    </g>
    <g id="shape6" transform="matrix(1.0, 0.0, 0.0, 1.0, 0.0, 0.0)">
      <path d="M152.9 8.35 L0.0 8.35 0.0 0.0 152.9 0.0 152.9 8.35" fill="#ffffff" fill-opacity="0.29803923" fill-rule="evenodd" stroke="none"/>
    </g>
    <g id="sprite8" transform="matrix(1.0, 0.0, 0.0, 1.0, 9.6, 10.8)">
      <use height="16.8" transform="matrix(1.0, 0.0, 0.0, 1.0, -9.6, -9.15)" width="17.95" xlink:href="#shape7"/>
    </g>
    <g id="shape7" transform="matrix(1.0, 0.0, 0.0, 1.0, 9.6, 9.15)">
      <path d="M3.0 -9.05 L3.6 -8.5 Q4.9 -6.95 4.9 -4.85 4.9 -2.9 3.65 -1.4 L-2.65 5.45 -8.0 -0.25 -8.3 -0.65 Q-9.6 -2.05 -9.6 -4.15 -9.6 -6.2 -8.3 -7.7 -6.95 -9.15 -5.1 -9.15 -3.8 -9.15 -2.75 -8.45 L-2.0 -7.7 Q-0.65 -6.25 -0.6 -5.75 -0.6 -6.2 0.7 -7.7 1.7 -8.75 3.0 -9.05" fill="#ff0000" fill-rule="evenodd" stroke="none"/>
      <path d="M-2.65 5.45 L3.65 -1.4 Q4.9 -2.9 4.9 -4.85 4.9 -6.95 3.6 -8.5 L3.0 -9.05 3.9 -9.15 Q5.7 -9.15 7.05 -7.7 8.35 -6.2 8.35 -4.1 8.35 -2.1 7.1 -0.65 L-0.55 7.65 -2.65 5.45" fill="#d90000" fill-rule="evenodd" stroke="none"/>
    </g>
    <g id="shape9" transform="matrix(1.0, 0.0, 0.0, 1.0, -3.0, -4.55)">
      <path d="M31.85 4.55 L34.55 4.55 34.55 9.45 3.0 41.0 3.0 33.4 31.85 4.55 M34.55 17.05 L34.55 24.65 15.1 44.1 7.5 44.1 34.55 17.05 M34.55 32.25 L34.55 39.85 30.3 44.1 22.7 44.1 34.55 32.25 M3.0 25.8 L3.0 18.2 16.65 4.55 24.25 4.55 3.0 25.8 M3.0 10.6 L3.0 4.55 9.05 4.55 3.0 10.6" fill="#cccccc" fill-rule="evenodd" stroke="none"/>
      <path d="M24.25 4.55 L31.85 4.55 3.0 33.4 3.0 25.8 24.25 4.55 M34.55 9.45 L34.55 17.05 7.5 44.1 3.0 44.1 3.0 41.0 34.55 9.45 M34.55 24.65 L34.55 32.25 22.7 44.1 15.1 44.1 34.55 24.65 M34.55 39.85 L34.55 44.1 30.3 44.1 34.55 39.85 M3.0 18.2 L3.0 10.6 9.05 4.55 16.65 4.55 3.0 18.2" fill="#e4e4e4" fill-rule="evenodd" stroke="none"/>
    </g>
    <g id="sprite9" transform="matrix(1.0, 0.0, 0.0, 1.0, 16.9, 35.45)">
      <use height="6.0" id="shade" transform="matrix(1.0, 0.0, 0.0, 1.0, -11.8, -2.0)" width="24.3" xlink:href="#sprite10"/>
      <use height="17.7" id="body" transform="matrix(1.0, 0.0, 0.0, 1.0, -7.75, -16.95)" width="15.5" xlink:href="#sprite11"/>
      <use height="19.5" id="head" transform="matrix(1.0, 0.0, 0.0, 1.0, -8.8, -35.45)" width="22.75" xlink:href="#sprite12"/>
      <use height="27.05" id="hands" transform="matrix(1.0, 0.0, 0.0, 1.0, -16.9, -19.45)" width="42.15" xlink:href="#sprite16"/>
    </g>
    <g id="sprite10" transform="matrix(1.0, 0.0, 0.0, 1.0, 12.15, 3.0)">
      <use height="6.0" transform="matrix(1.0, 0.0, 0.0, 1.0, -12.15, -3.0)" width="24.3" xlink:href="#shape10"/>
    </g>
    <g id="shape10" transform="matrix(1.0, 0.0, 0.0, 1.0, 12.15, 3.0)">
      <path d="M8.6 -2.15 Q12.15 -1.25 12.15 0.0 12.15 1.25 8.6 2.1 L0.0 3.0 -8.6 2.1 Q-12.15 1.25 -12.15 0.0 -12.15 -1.25 -8.6 -2.15 L0.0 -3.0 8.6 -2.15" fill="#000000" fill-opacity="0.49803922" fill-rule="evenodd" stroke="none"/>
    </g>
    <g id="sprite11" transform="matrix(1.0, 0.0, 0.0, 1.0, 7.75, 16.95)">
      <use height="16.2" transform="matrix(1.0, 0.0, 0.0, 1.0, -7.0, -16.2)" width="14.0" xlink:href="#shape11"/>
      <use height="17.7" transform="matrix(1.0, 0.0, 0.0, 1.0, -7.75, -16.95)" width="15.5" xlink:href="#shape12"/>
      <use height="8.75" transform="matrix(1.0, 0.0, 0.0, 1.0, -1.25, -16.2)" width="6.5" xlink:href="#shape13"/>
    </g>
    <g id="shape11" transform="matrix(1.0, 0.0, 0.0, 1.0, 7.0, 16.2)">
      <path d="M4.0 0.0 L-4.0 0.0 -7.0 -16.2 7.0 -16.2 4.0 0.0" fill="#000000" fill-rule="evenodd" stroke="none"/>
    </g>
    <g id="shape12" transform="matrix(1.0, 0.0, 0.0, 1.0, 7.75, 16.95)">
      <path d="M4.0 0.0 L-4.0 0.0 -7.0 -16.2 7.0 -16.2 4.0 0.0 Z" fill="none" stroke="#000000" stroke-linecap="round" stroke-linejoin="round" stroke-width="1.5"/>
    </g>
    <g id="shape13" transform="matrix(1.0, 0.0, 0.0, 1.0, 1.25, 16.2)">
      <path d="M2.95 -16.2 L5.25 -16.2 3.65 -11.85 2.95 -16.2 M0.5 -11.5 L-1.25 -16.2 1.35 -16.2 0.5 -11.5" fill="#ffffff" fill-rule="evenodd" stroke="none"/>
      <path d="M3.65 -11.85 L2.0 -7.45 0.5 -11.5 1.35 -16.2 2.95 -16.2 3.65 -11.85" fill="#ff0000" fill-rule="evenodd" stroke="none"/>
    </g>
    <g id="sprite12" transform="matrix(1.0, 0.0, 0.0, 1.0, 10.55, 13.75)">
      <use height="10.0" id="facecolor" transform="matrix(1.0, 0.0, 0.0, 1.0, -5.0, -5.0)" width="10.0" xlink:href="#sprite13"/>
      <use height="11.5" transform="matrix(1.0, 0.0, 0.0, 1.0, -5.75, -5.75)" width="11.5" xlink:href="#shape15"/>
      <use height="6.25" id="eyes" transform="matrix(1.0, 0.0, 0.0, 1.0, -5.4, -3.65)" width="11.3" xlink:href="#sprite14"/>
      <use height="11.75" id="hat" transform="matrix(1.0, 0.0, 0.0, 1.0, -10.55, -13.75)" width="22.75" xlink:href="#sprite15"/>
    </g>
    <g id="sprite13" transform="matrix(1.0, 0.0, 0.0, 1.0, 5.0, 5.0)">
      <use height="5.0" transform="matrix(2.0, 0.0, 0.0, 2.0, -5.0, -5.0)" width="5.0" xlink:href="#shape14"/>
    </g>
    <g id="shape14" transform="matrix(1.0, 0.0, 0.0, 1.0, 2.5, 2.5)">
      <path d="M1.75 -1.75 Q2.5 -1.0 2.5 0.0 2.5 1.05 1.75 1.8 1.05 2.5 0.0 2.5 -1.05 2.5 -1.8 1.8 -2.5 1.05 -2.5 0.0 -2.5 -1.0 -1.8 -1.75 -1.05 -2.5 0.0 -2.5 1.05 -2.5 1.75 -1.75" fill="#ff99cc" fill-rule="evenodd" stroke="none"/>
    </g>
    <g id="shape15" transform="matrix(1.0, 0.0, 0.0, 1.0, 5.75, 5.75)">
      <path d="M5.0 -0.05 Q5.0 1.45 4.25 2.6 L3.5 3.5 Q2.05 5.0 0.0 5.0 -2.1 5.0 -3.6 3.5 -5.0 2.05 -5.0 -0.05 -5.0 -2.1 -3.6 -3.6 -2.1 -5.0 0.0 -5.0 2.05 -5.0 3.5 -3.6 4.65 -2.45 4.95 -1.0 L5.0 -0.05 Z" fill="none" stroke="#000000" stroke-linecap="round" stroke-linejoin="round" stroke-width="1.5"/>
    </g>
    <g id="sprite14" transform="matrix(1.0, 0.0, 0.0, 1.0, 5.4, 3.65)">
      <use height="2.55" transform="matrix(1.0, 0.0, 0.0, 1.0, -0.2, -2.35)" width="3.9" xlink:href="#shape16"/>
    </g>
    <g id="shape16" transform="matrix(1.0, 0.0, 0.0, 1.0, 0.2, 2.35)">
      <path d="M3.7 -2.35 L3.7 0.2 2.35 0.2 2.35 -2.35 3.7 -2.35 M1.15 0.2 L-0.2 0.2 -0.2 -2.35 1.15 -2.35 1.15 0.2" fill="#000000" fill-rule="evenodd" stroke="none"/>
    </g>
    <g id="sprite15" transform="matrix(1.0, 0.0, 0.0, 1.0, 10.55, 13.75)">
      <use height="7.6" transform="matrix(1.0, 0.0, 0.0, 1.0, -6.55, -10.85)" width="13.0" xlink:href="#shape17"/>
    </g>
    <g id="shape17" transform="matrix(1.0, 0.0, 0.0, 1.0, 6.55, 10.85)">
      <path d="M3.9 -6.4 L3.9 -5.15 -3.9 -5.15 -3.9 -6.4 3.9 -6.4" fill="#666666" fill-rule="evenodd" stroke="none"/>
      <path d="M3.9 -5.15 L3.9 -4.55 6.45 -4.55 6.45 -3.25 -6.55 -3.25 -6.55 -4.55 -3.9 -4.55 -3.9 -5.15 3.9 -5.15 M-3.9 -6.4 L-3.9 -10.85 3.9 -10.85 3.9 -6.4 -3.9 -6.4" fill="#000000" fill-rule="evenodd" stroke="none"/>
    </g>
    <g id="sprite16" transform="matrix(1.0, 0.0, 0.0, 1.0, 4.65, 8.7)">
      <use height="6.5" id="hand2" transform="matrix(1.0, 0.0, 0.0, 1.0, 20.05, 0.75)" width="6.5" xlink:href="#sprite17"/>
      <use height="12.7" transform="matrix(0.874, 0.4857, -0.4857, 0.874, 3.6718, -4.2057)" width="22.65" xlink:href="#sprite19"/>
      <use height="6.5" id="hand1" transform="matrix(1.0, 0.0, 0.0, 1.0, 0.9, 2.25)" width="6.5" xlink:href="#sprite17"/>
    </g>
    <g id="sprite17" transform="matrix(1.0, 0.0, 0.0, 1.0, 3.25, 3.25)">
      <use height="5.0" id="handcolor" transform="matrix(1.0, 0.0, 0.0, 1.0, -2.5, -2.5)" width="5.0" xlink:href="#sprite18"/>
      <use height="6.5" transform="matrix(1.0, 0.0, 0.0, 1.0, -3.25, -3.25)" width="6.5" xlink:href="#shape18"/>
    </g>
    <g id="sprite18" transform="matrix(1.0, 0.0, 0.0, 1.0, 2.5, 2.5)">
      <use height="5.0" transform="matrix(1.0, 0.0, 0.0, 1.0, -2.5, -2.5)" width="5.0" xlink:href="#shape14"/>
    </g>
    <g id="shape18" transform="matrix(1.0, 0.0, 0.0, 1.0, 3.25, 3.25)">
      <path d="M1.75 -1.75 Q2.5 -1.0 2.5 0.0 2.5 1.05 1.75 1.8 1.0 2.5 0.0 2.5 -1.05 2.5 -1.8 1.8 -2.5 1.05 -2.5 0.0 -2.5 -1.0 -1.8 -1.75 -1.05 -2.5 0.0 -2.5 1.0 -2.5 1.75 -1.75 Z" fill="none" stroke="#000000" stroke-linecap="round" stroke-linejoin="round" stroke-width="1.5"/>
    </g>
    <g id="sprite19" transform="matrix(1.0, 0.0, 0.0, 1.0, 10.15, 5.75)">
      <use height="12.7" transform="matrix(1.0, 0.0, 0.0, 1.0, -10.15, -5.75)" width="22.65" xlink:href="#shape19"/>
    </g>
    <g id="shape19" transform="matrix(1.0, 0.0, 0.0, 1.0, 10.15, 5.75)">
      <path d="M10.05 -1.6 L3.75 -1.6 Q2.3 -1.5 1.6 0.05 L1.5 1.05 1.6 1.5 -1.25 1.55 Q-2.0 1.25 -2.4 2.3 L-2.9 5.1 -2.9 6.95 -7.6 6.95 -8.4 6.25 -3.95 6.25 -2.6 -0.65 -6.25 -0.65 -6.65 1.05 -7.05 1.05 Q-6.75 -0.05 -7.55 -0.7 L-9.7 -1.0 -10.15 -1.2 -10.15 -1.3 -10.05 -1.45 -8.5 -1.8 -8.05 -2.35 -8.3 -1.8 -8.25 -1.8 -6.3 -1.8 -5.4 -1.8 -4.5 -1.8 -3.7 -1.8 -2.8 -1.8 -1.9 -1.8 10.05 -1.8 10.05 -1.6 M-1.35 1.05 L-1.25 1.1 0.6 1.1 0.9 0.75 1.0 0.15 0.8 -0.75 -1.3 -0.85 Q-1.9 -0.65 -2.1 0.05 -2.1 0.85 -1.35 1.05" fill="#90908e" fill-rule="evenodd" stroke="none"/>
      <path d="M-0.65 -5.1 L10.3 -5.1 12.0 -5.1 12.5 -5.1 12.5 -3.5 11.85 -1.6 10.05 -1.6 10.05 -1.8 10.1 -1.8 10.1 -2.85 10.1 -3.5 -0.65 -3.5 -0.65 -5.1" fill="#bbb9ba" fill-rule="evenodd" stroke="none"/>
      <path d="M-6.25 -4.95 L-6.25 -5.7 -5.65 -5.7 -4.85 -4.95 -6.25 -4.95 M10.3 -5.1 L11.2 -5.75 12.0 -5.75 12.0 -5.1 10.3 -5.1" fill="#3c3f36" fill-rule="evenodd" stroke="none"/>
      <path d="M-8.05 -2.35 Q-8.25 -3.25 -8.85 -3.75 -9.2 -4.3 -8.6 -4.25 L-7.55 -4.2 -7.95 -2.7 -8.05 -2.35" fill="#7f8078" fill-rule="evenodd" stroke="none"/>
      <path d="M-8.4 6.25 Q-8.75 5.1 -8.25 4.15 -7.35 2.65 -7.05 1.05 L-6.65 1.05 -6.25 -0.65 -2.6 -0.65 -3.95 6.25 -8.4 6.25" fill="#333532" fill-rule="evenodd" stroke="none"/>
      <path d="M-0.65 -3.5 L10.1 -3.5 10.1 -2.85 -0.3 -2.85 -0.65 -3.5" fill="#e3e4df" fill-rule="evenodd" stroke="none"/>
      <path d="M-7.55 -4.2 L-6.6 -4.95 -6.25 -4.95 -4.85 -4.95 -4.55 -4.95 Q-4.0 -5.1 -3.75 -5.3 L-0.65 -5.3 -0.65 -5.1 -0.65 -3.5 -0.3 -2.85 10.1 -2.85 10.1 -1.8 10.05 -1.8 -1.9 -1.8 -1.25 -4.25 -2.15 -4.25 -2.8 -1.8 -3.7 -1.8 -3.0 -4.35 -4.0 -4.35 -4.3 -3.45 -5.9 -4.4 Q-6.45 -4.6 -6.65 -4.15 L-6.65 -3.75 -6.3 -3.25 -5.9 -3.15 -6.3 -1.8 -8.25 -1.8 -8.05 -2.35 -7.9 -2.7 -7.55 -4.2 M-4.5 -1.8 L-5.4 -1.8 -5.15 -3.05 -4.5 -2.95 Q-4.3 -2.95 -4.25 -3.1 L-4.5 -1.8" fill="#bbc0c1" fill-rule="evenodd" stroke="none"/>
      <path d="M-5.9 -3.15 L-6.3 -3.25 -6.65 -3.75 -6.65 -4.15 Q-6.45 -4.6 -5.9 -4.4 L-4.3 -3.45 -4.2 -3.25 -4.25 -3.1 Q-4.3 -2.95 -4.5 -2.95 L-5.15 -3.05 -5.9 -3.15" fill="#4b494a" fill-rule="evenodd" stroke="none"/>
      <path d="M-1.9 -1.8 L-2.8 -1.8 -2.15 -4.25 -1.25 -4.25 -1.9 -1.8 M-3.7 -1.8 L-4.5 -1.8 -4.25 -3.1 -4.2 -3.25 -4.3 -3.45 -4.0 -4.35 -3.0 -4.35 -3.7 -1.8 M-5.4 -1.8 L-6.3 -1.8 -5.9 -3.15 -5.15 -3.05 -5.4 -1.8" fill="#757c7d" fill-rule="evenodd" stroke="none"/>
    </g>
  </defs>
</svg>
